<?xml version="1.0" standalone="no"?>
<!DOCTYPE svg PUBLIC "-//W3C//DTD SVG 20010904//EN"
 "http://www.w3.org/TR/2001/REC-SVG-20010904/DTD/svg10.dtd">
<svg version="1.0" xmlns="http://www.w3.org/2000/svg"
 width="500.000000pt" height="500.000000pt" viewBox="0 0 500.000000 500.000000"
 preserveAspectRatio="xMidYMid meet">

<g transform="translate(0.000000,500.000000) scale(0.100000,-0.100000)"
fill="#000000" stroke="none">
<path d="M2524 3864 c71 -81 154 -209 171 -262 4 -13 72 -87 152 -165 178
-174 197 -203 191 -293 -3 -50 -9 -69 -26 -87 -21 -21 -33 -22 -220 -28 -108
-3 -186 -6 -172 -8 14 -2 31 -3 39 -2 7 2 10 -2 7 -8 -4 -5 3 -13 15 -16 15
-5 18 -10 9 -15 -16 -10 30 -56 53 -52 12 2 17 -3 17 -17 0 -13 -6 -21 -17
-21 -14 0 -14 -2 2 -20 10 -11 22 -17 28 -13 5 3 7 2 4 -4 -3 -5 20 -36 53
-68 48 -48 59 -54 62 -39 4 17 6 16 15 -6 13 -29 63 -79 63 -62 0 16 11 15 35
-4 13 -9 16 -17 9 -22 -6 -4 -4 -13 8 -24 9 -10 20 -13 23 -8 3 5 26 -2 50
-15 39 -20 105 -32 140 -25 6 1 16 3 23 4 7 0 16 7 21 14 5 8 11 13 15 13 15
-3 64 30 98 66 145 153 217 369 189 571 -23 163 -118 337 -250 455 -102 92
-163 131 -274 177 -127 53 -232 70 -439 70 l-170 0 76 -86z"/>
<path d="M2370 2552 c0 -10 6 -24 12 -30 10 -10 -1 -25 -51 -70 -50 -45 -75
-59 -114 -67 -61 -13 -81 -37 -52 -60 20 -16 20 -16 0 -7 -54 25 -36 -8 53
-96 53 -53 113 -123 131 -155 36 -61 161 -394 188 -501 44 -177 181 -308 348
-335 192 -30 346 108 304 272 -14 59 -62 106 -151 150 -104 50 -194 117 -262
195 -107 122 -142 185 -202 362 -60 174 -131 324 -155 326 -37 3 -41 5 -35 19
3 8 1 15 -4 15 -6 0 -10 -8 -10 -18z"/>
<path d="M2106 2331 c-4 -5 3 -7 14 -4 23 6 26 13 6 13 -8 0 -17 -4 -20 -9z"/>
<path d="M1410 1894 c0 -7 -11 -9 -26 -6 -20 3 -26 0 -31 -17 -4 -15 -13 -21
-34 -21 -16 0 -29 -5 -29 -11 0 -13 -69 -10 -87 4 -7 5 -13 7 -13 4 0 -3 46
-97 101 -209 117 -234 100 -235 150 11 26 126 29 158 20 174 -8 11 -8 16 -2
12 7 -4 11 6 11 28 0 30 -3 34 -19 30 -13 -3 -18 -11 -15 -21 3 -10 -2 -6 -10
8 -8 14 -15 20 -16 14z"/>
</g>
</svg>
